<svg xmlns="http://www.w3.org/2000/svg" width="1600.003" height="1600.003" fill-rule="evenodd" clip-rule="evenodd" image-rendering="optimizeQuality" shape-rendering="geometricPrecision" text-rendering="geometricPrecision" viewBox="0 0 16666.66 16666.66" id="taxi-driver"><rect width="16666.66" height="16666.66" fill="none"></rect><path fill-rule="nonzero" d="M15843.93 10332.8c-62.98,-395.14 -310.1,-586.65 -310.1,-586.65 -693.54,-614.54 -3248.05,-1135.96 -3248.05,-1135.96l-1404.07 -747.11c-1769.42,-614.29 -4421.46,-216.51 -4792.78,-57.44 -74.53,32.04 -371.39,79.61 -1219.97,583.5 -225.19,145.84 -795.57,238.57 -1140.39,450.93 0,0 -464.02,92.73 -614.26,688.07 -31.94,127.17 -145.87,390.24 -181.17,655.52 -58.94,441.2 371.29,830.91 371.29,830.91 0,0 1501.7,106 1645.9,107.65 -7.05,-44.17 -10.84,-301.8 -10.84,-347.97 0,-479.54 -35.44,-814.88 443.6,-814.88 479.15,0 867.6,335.34 867.6,814.88 0,52.36 -4.79,315.53 -13.63,365.49 1194.9,-4.54 4589.79,53.11 5859.47,61.94 -13.23,-60.44 -13.23,-363.2 -13.23,-427.43 0,-479.54 388.45,-814.88 867.6,-814.88 479.04,0 867.63,335.34 867.63,814.88 0,67.13 -7.83,397.68 -22.35,460.23 479.18,0.75 1794.56,47.06 1837.59,17.67 146.09,-99.53 263.03,-498.2 298.62,-676.34 8.44,-75.07 -76.71,-169.84 -88.44,-243.01z"></path><path fill-rule="nonzero" d="M9891.22 9497.75l-395.14 0c-27.5 0-49.85-22.21-49.85-49.46 0-27.25 22.35-49.57 49.85-49.57l395.14 0c27.25 0 49.17 22.31 49.17 49.57 0 27.25-21.92 49.46-49.17 49.46zM7416.03 9497.75l-395.25 0c-27.39 0-49.71-22.21-49.71-49.46 0-27.25 22.31-49.57 49.71-49.57l395.25 0c27.25 0 49.21 22.31 49.21 49.57 0 27.25-21.96 49.46-49.21 49.46z"></path><path fill="#aa0202" fill-rule="nonzero" d="M3238.18 9280.63c63.19,-31.29 402.08,-70.27 402.08,89.69 0,70.63 -548.17,256.49 -548.17,256.49 0,0 39.98,-293.07 146.09,-346.18z"></path><path fill="#222" fill-rule="nonzero" d="M8853.64 10657.81c-6.04,-0.25 -12.48,-0.5 -18.52,-0.75 -31.79,-246.8 -120.23,-932.72 -177.02,-1368.88 5.19,0 10.23,0.14 15.41,0.14l180.13 1369.49zm-2298.92 -97.28c-28.15,-1.5 -54.36,-3.15 -78.61,-4.69 -10.23,-476.25 -788.39,-1050.27 -1047.88,-1180.23 -125.92,-62.94 -193.19,-210.32 -226.34,-358.41 31.54,1.36 63.34,2.9 95.13,4.4 32.65,139.91 96.88,277.8 214.32,336.85 251.7,126.56 1065.58,738.81 1043.37,1202.08zm2066.28 -1670.89c-5.19,-0.11 -10.23,-0.25 -15.38,-0.39 -63.98,-480.54 -146.23,-1078.81 -163.15,-1163.07 -59.04,-3.04 -129.17,-4.3 -207.28,-4.3 -569.62,0 -1558.1,71.78 -1677.69,110.4 -172.09,55.36 -1149.33,503.89 -1277.65,808.2 -3.15,7.3 -5.94,20.42 -8.08,38.23 -31.79,-1.65 -63.19,-3.18 -93.98,-4.54 2.4,-21.85 5.69,-37.87 9.33,-46.46 123.88,-291.54 1188.81,-772.86 1370.38,-830.91 127.67,-40.88 1140.5,-126.13 1725.76,-126.13 65.09,0 125.02,1 177.78,3.25l159.96 1215.71z"></path><path fill="#2b2b2b" fill-rule="nonzero" d="M4299.72 8680.86c-294.97,113.55 -963.52,415.45 -627.92,335.85 335.45,-79.5 2908.17,35.44 3759.75,194.51 551.31,102.96 1967.26,83.79 3072.82,64.62 602.67,-10.37 1113.11,-20.85 1340.84,-11.48 645.44,26.36 2972.61,105.96 3308.35,397.79 271.26,79.36 425.68,159.07 141.8,-79.61 -283.85,-238.72 -2055.55,-610 -3372.19,-663.11 -548.42,-22.1 -1166.36,-21.1 -1795.78,-20.2 -881.12,1.25 -1785.09,2.65 -2553.41,-59.15 -1165.35,-94.02 -3067.74,-238.72 -3274.27,-159.22z"></path><path fill="#a9c0bc" fill-rule="nonzero" d="M11265.11 8879.16c-89.44,-4.15 -204.13,-8.33 -334.95,-12.73l56 0c67.77,0 129.07,-27.14 173.73,-71.17 34.83,29.4 72.03,59.69 105.22,83.9zm-588.3 -20.56c-771.11,-22.46 -1829.86,-43.27 -1829.86,-43.27l-122.63 -948.74c93.13,0.5 820.43,9.33 1315.99,143.44 201.74,54.64 488.41,201.88 752.83,361.45l-54.39 0c-136.76,0 -247.65,110.8 -247.65,247.3 0,115.55 79,212.32 185.71,239.82z"></path><path fill="#d5e2ef" fill-rule="nonzero" d="M11454.62 8891.79c-185.72,-28.76 -2607.66,-76.46 -2607.66,-76.46l-123.78 -957.83c0,0 795.61,0 1325.86,143.83 530.65,143.59 1647.68,928.04 1405.57,890.45zm-1328.26 -944.31c-593.08,-160.5 -1482.78,-160.5 -1482.78,-160.5l138.29 1070.87c0,0 2708.69,53.5 2916.5,85.54 270.47,42.02 -978.78,-835.2 -1572.01,-995.91z"></path><path fill="#2b2b2b" fill-rule="nonzero" d="M15640.54 11245.46c145.98,-99.42 263.03,-498.31 298.51,-676.34 8.08,-75.06 -76.85,-169.69 -88.58,-242.86 -63.09,-395.28 -309.99,-586.79 -309.99,-586.79 -141.41,-125.38 -360.67,-246.91 -619.3,-360.81 -315.18,226.2 111.65,674.69 111.65,674.69 397.79,291.57 291.54,662.86 158.96,901.43 -43.67,79.25 -90.73,187.22 -133.36,296.51 315.64,5.4 563.8,6.65 582.11,-5.83z"></path><path fill="#e5e5e5" fill-rule="nonzero" d="M15353.15 9768.22c-289.93,-192.76 -565.72,-291.78 -866.49,-282.95 -233.03,6.8 -437.02,2.26 -150.13,176.88 654.02,397.79 755.94,475.25 1089.65,412.67 245.76,-46.06 -73.03,-306.59 -73.03,-306.59z"></path><path fill="#a9c0bc" fill-rule="nonzero" d="M8272.44 8844.37c0,0 -1024.56,-40.27 -1511.68,-86.19 -609.86,-57.4 -618.83,-19.17 -963.52,-134.11 -344.93,-115.05 300.41,-421.24 751.3,-593.73 387.45,-148.09 1175.33,-164.01 1495.52,-164.01 87.44,0 139.94,1.29 139.94,1.29l88.44 976.75z"></path><path fill="#d5e2ef" fill-rule="nonzero" d="M5814.91 8606.4c-344.79,-114.8 300.51,-421.25 751.19,-593.73 493.52,-188.61 1635.42,-162.61 1635.42,-162.61l88.58 976.64c0,0 -1024.45,-40.12 -1511.57,-86.04 -609.96,-57.54 -618.94,-19.45 -963.62,-134.25zm2459.03 -825.97c0,0 -1259.59,-28.5 -1803.75,179.39 -497.06,190.26 -1208.99,528 -828.76,654.92 380.26,126.67 390.09,84.4 1062.79,147.99 537.22,50.46 1667.25,95.02 1667.25,95.02l-97.52 -1077.31z"></path><path fill-rule="nonzero" d="M11233.71 8618.78c0,136.9 -110.9,247.65 -247.55,247.65l-247.41 0c-136.76,0 -247.65,-110.76 -247.65,-247.65 0,-136.5 110.9,-247.3 247.65,-247.3l247.41 0c136.65,0 247.55,110.8 247.55,247.3z"></path><path fill-rule="nonzero" d="M11136.43 8557.09l680.63 388.95c0,0 -397.64,0 -468.31,-17.78 -70.63,-17.67 -318.32,-247.41 -318.32,-247.41l106 -123.77z"></path><path fill="#2b2b2b" fill-rule="nonzero" d="M6274.78 10537.33c105.21,42.13 4383.76,177.63 5913.83,256.35 392.5,20.06 117.09,93.73 117.09,93.73l-6030.91 -49.71 0 -300.37z"></path><path fill="#232121" fill-rule="nonzero" d="M12029.39 10854.25c0,-571.52 463.16,-1034.18 1034.29,-1034.18 571.27,0 1034.04,462.66 1034.04,1034.18 0,571.13 -462.77,1033.89 -1034.04,1033.89 -571.13,0 -1034.29,-462.76 -1034.29,-1033.89z"></path><path fill="#898989" fill-rule="nonzero" d="M12467.3 10854.25c0.79,328.91 267.22,595.34 596.38,595.84 329.05,-0.5 595.48,-266.93 595.87,-595.84 -0.39,-329.05 -266.82,-595.62 -595.87,-596.12 -329.16,0.5 -595.59,267.07 -596.38,596.12zm-105.21 0c0.39,-387.34 314.28,-701.59 701.59,-701.59 387.2,0 701.23,314.24 701.23,701.59 0,387.42 -314.03,700.94 -701.23,701.44 -387.31,-0.5 -701.2,-314.03 -701.59,-701.44z"></path><path fill="#898989" fill-rule="nonzero" d="M13688.8 10993.51c-254.59,-15.27 -443.31,-71.78 -443.31,-139.26 0,-67.63 188.72,-123.92 443.56,-139.19 -16.38,-72.78 -45.17,-142.16 -84.76,-204.89 -190.65,169.09 -364.49,263.57 -412.2,215.5 -47.56,-47.7 46.46,-221.41 215.5,-411.91 -40.52,-25.64 -84.29,-47.31 -131.85,-64.23 -24.46,-8.58 -48.57,-15.13 -72.78,-20.7 -15.27,254.74 -72.06,443.6 -139.3,443.6 -67.38,0 -123.78,-188.86 -139.3,-443.6 -72.53,16.27 -141.91,45.06 -204.38,84.94 168.94,190.76 262.81,364.2 215.36,411.91 -47.67,48.07 -221.51,-46.42 -412.27,-215.5 -25.64,40.63 -47.56,84.29 -63.84,131.71 -8.58,24.35 -15.27,48.96 -21.1,73.17 254.99,15.27 443.99,71.56 443.99,139.19 0,67.48 -189,123.99 -443.99,139.26 16.31,72.56 45.31,141.55 85.04,204.78 190.65,-169.3 364.49,-263.32 412.16,-215.76 47.46,47.71 -46.42,221.8 -215.72,412.31 40.63,25.86 84.65,47.56 131.96,64.09 24.11,8.58 48.31,15.17 72.78,20.96 15.52,-254.84 71.92,-444.2 139.3,-444.2 67.23,0 124.02,189.36 139.3,444.2 72.67,-16.52 141.94,-45.17 204.38,-85.4 -168.8,-190.15 -262.82,-364.24 -215.26,-411.95 47.71,-47.56 221.55,46.46 412.31,215.76 25.35,-40.77 47.46,-84.65 64.09,-132.11 8.08,-24.1 15.16,-48.31 20.31,-72.67z"></path><path fill="#2b2b2b" fill-rule="nonzero" d="M4506.61 10510.68l-1520.62 -66.48 79.61 198.98c0,0 1488.18,131.96 1392.31,73.03 -86.15,-53.11 48.71,-205.53 48.71,-205.53z"></path><path fill="#222" fill-rule="nonzero" d="M11806.23 10775.25c-19.56,-0.86 -39.23,-1.75 -59.3,-2.65 60.55,-196.44 397.64,-1303.36 353.37,-1498.05 20.96,0.89 42.63,1.79 64.83,2.65 35.98,195.94 -257.85,1171.55 -358.91,1498.05zm-2887.86 -115.05c-16.02,-0.64 -32.04,-1.25 -48.07,-1.79 -30.29,-252.95 -111.79,-929.54 -168.3,-1369.74 12.48,0.25 25.1,0.25 37.59,0.54l178.78 1370.99zm3057.8 -1738.52c-17.81,-0.75 -35.48,-1.5 -53,-2.26 -5.19,-0.14 -10.48,-0.39 -15.77,-0.64 -40.48,-53.36 -80.36,-97.13 -113.04,-124.52 -80.36,-67.63 -1285.7,-820.18 -1573.12,-903.18 -287.64,-83.15 -1685.52,-165.65 -1685.52,-165.65l152.02 1165.61c-12.73,-0.25 -25.46,-0.5 -38.09,-0.75 -66.23,-500.5 -148.63,-1116.43 -171.84,-1215.57 -5.54,-0.29 -11.09,-0.54 -16.77,-0.79l-0.25 -1.89c0,0 1447.2,83.04 1747.57,169.08 300.3,85.8 1551.2,862.56 1635.35,932.58 37.84,31.54 85.01,84.04 132.46,147.99z"></path><path fill="#292929" fill-rule="nonzero" d="M8870.31 10658.42c-5.54,-0.25 -11.12,-0.5 -16.67,-0.61l-180.13 -1369.49c9.44,0.11 18.92,0.25 28.5,0.36 56.5,440.2 138.01,1116.79 168.3,1369.74zm-220.65 -1768.13c-9.58,-0.25 -19.06,-0.39 -28.65,-0.64l-159.96 -1215.71c5.69,0.25 11.23,0.5 16.77,0.79 23.21,99.13 105.61,715.07 171.84,1215.57z"></path><path fill="#2b2b2b" fill-rule="nonzero" d="M8739.6 9289.22c-12.48-.29-25.11-.29-37.59-.54-9.59-.11-19.06-.25-28.5-.36l-52.5-398.68c9.59.25 19.06.39 28.65.64 12.63.25 25.35.5 38.09.75l51.86 398.18zm3425.54-12.02c-22.21-.86-43.88-1.75-64.83-2.65-.65-2.75-1.4-5.4-2.15-7.8-39.73-120.63-116.44-250.34-190.76-347.97 5.3.25 10.59.5 15.77.64 17.52.75 35.19 1.5 53 2.26 73.17 99.02 146.74 225.34 185.82 342.67 1.25 3.9 2.29 8.19 3.15 12.84zM11772.9 10882.01l-2894.4-35.33-24.86-188.86c5.54.11 11.12.36 16.67.61 16.02.54 32.04 1.15 48.07 1.79l17.27 132.96 2801.96 9.23c0 0 3.26-10.48 9.33-29.79 20.06.89 39.73 1.79 59.3 2.65-20.71 66.98-33.33 106.75-33.33 106.75z"></path><path fill="#232121" fill-rule="nonzero" d="M4338.7 10854.25c0,-571.52 463.12,-1034.18 1034.25,-1034.18 571.16,0 1034.29,462.66 1034.29,1034.18 0,571.13 -463.13,1033.89 -1034.29,1033.89 -571.13,0 -1034.25,-462.76 -1034.25,-1033.89z"></path><path fill="#898989" fill-rule="nonzero" d="M4776.72 10854.25c0.5,328.91 267.22,595.34 596.23,595.84 329.05,-0.5 595.48,-266.93 595.87,-595.84 -0.39,-329.05 -266.82,-595.62 -595.87,-596.12 -329.02,0.5 -595.73,267.07 -596.23,596.12zm-105.36 0c0.39,-387.34 314.28,-701.59 701.59,-701.59 387.09,0 700.98,314.24 700.98,701.59 0,387.42 -313.89,700.94 -700.98,701.44 -387.31,-0.5 -701.2,-314.03 -701.59,-701.44z"></path><path fill="#898989" fill-rule="nonzero" d="M5998.23 10993.51c-254.99,-15.27 -443.6,-71.78 -443.6,-139.26 0,-67.63 188.61,-123.92 443.85,-139.19 -16.52,-72.78 -45.52,-142.16 -85.15,-204.89 -190.65,169.09 -364.49,263.57 -411.91,215.5 -47.56,-47.7 46.17,-221.41 215.36,-411.91 -40.37,-25.64 -84.29,-47.31 -131.85,-64.23 -24.35,-8.58 -48.46,-15.13 -72.67,-20.7 -15.38,254.74 -72.17,443.6 -139.3,443.6 -67.34,0 -123.99,-188.86 -139.26,-443.6 -72.67,16.27 -141.94,45.06 -204.38,84.94 168.8,190.76 262.67,364.2 215.22,411.91 -47.67,48.07 -221.55,-46.42 -412.16,-215.5 -25.75,40.63 -47.56,84.29 -63.98,131.71 -8.44,24.35 -15.38,48.96 -20.81,73.17 254.74,15.27 443.71,71.56 443.71,139.19 0,67.48 -188.97,123.99 -443.81,139.26 16.13,72.56 45.28,141.55 85.01,204.78 190.51,-169.3 364.49,-263.32 412.06,-215.76 47.46,47.71 -46.42,221.8 -215.47,412.31 40.37,25.86 84.51,47.56 131.82,64.09 23.96,8.58 48.31,15.17 72.81,20.96 15.27,-254.84 71.92,-444.2 139.26,-444.2 67.13,0 123.92,189.36 139.3,444.2 72.52,-16.52 142.05,-45.17 204.52,-85.4 -169.19,-190.15 -262.93,-364.24 -215.36,-411.95 47.42,-47.56 221.26,46.46 412.27,215.76 25.35,-40.77 47.2,-84.65 63.98,-132.11 8.44,-24.1 15.27,-48.31 20.57,-72.67z"></path><path fill-rule="nonzero" d="M2726.46 6059.68c73.17 98.31 143.94 1063.33 143.94 1247 0 183.82-246.26 768.57-263.03 852.11-16.77 83.5-91.73-1984.28-8.19-2051.02 83.36-66.88 127.28-48.1 127.28-48.1zM1875.63 12152.32l114.94-56.65c0 0-94.27-104.71-112.3-100.31-18.17 3.79-2.65 156.96-2.65 156.96z"></path><path fill-rule="nonzero" d="M1743.78 11503.74c-15.38,140.65 -39.84,397.14 3.04,589.9 12.98,58.19 141.3,54.9 141.3,54.9 0,0 -9.33,-130.96 220.41,5.43 138.29,82.26 458.98,37.73 516.27,32.94 72.02,-6.83 135.61,-155.81 -24.11,-192.9 -201.09,-45.96 -273.76,-111.04 -313.39,-202.24 -39.98,-90.59 -52.11,-376.97 -52.11,-376.97l-491.41 88.94z"></path><path fill-rule="nonzero" d="M2390.11 10109.64c-35.44,352.22 -211.72,1708.34 -211.72,1708.34l-356.26 29.4 -90.19 69.02 -703.63 -114.94c27.15,-267.22 -16.77,-1516.08 133.61,-1967.37 176.63,-530 -15.52,-2413.86 317.68,-2506.45l1111.11 568.09c0,0 -165.15,1861.79 -200.59,2213.91z"></path><path fill="#232121" fill-rule="nonzero" d="M2507.05 10201.59c29.04,-288.39 170.19,-1513.93 200.63,-1971.76l-233.93 25.11c-58.54,643.3 -127.31,1382.86 -192.26,1854.71 -38.73,284.85 -65.88,1437.22 -100.17,1737.88l192.12 -8.48c0,0 98.42,-1285.44 133.61,-1637.46z"></path><path fill-rule="nonzero" d="M1261.74 12224.75l130.93 -61.58c0,0 -104.18,-120.24 -124.63,-116.05 -20.96,4.15 -6.29,177.63 -6.29,177.63z"></path><path fill-rule="nonzero" d="M1125.33 11490.47c-20.31,158.46 -52.35,447.24 -7.3,666.15 13.74,65.84 158.18,63.69 158.18,63.69 0,0 -62.55,-170.94 158.61,34.58 230.63,213.72 597.87,139.41 654.52,106.61 57,-33.05 73.42,-114.19 -52.61,-205.13 -128.57,-92.73 -230.49,-103.61 -326.65,-309.74 -47.42,-101.17 -28.76,-447.6 -28.76,-447.6l-556 91.44z"></path><path fill="#eac4b2" fill-rule="nonzero" d="M1819.24 5213.55c-9.73,49.71 -66.37,242.72 -66.37,242.72l144.33 335.99 35.69 -40.88 54.39 53.86 245.12 -9.58c0,0 -34.55,-206.78 -7.44,-353.26l26.65 -56.4c0,0 -426.57,-200.98 -432.37,-172.44z"></path><path fill="#232121" fill-rule="nonzero" d="M2320.98 5726.38c0,0 -65.63,-155.32 93.34,-11.73 99.17,89.33 318.46,226.84 312.14,345.04 -4.54,90.73 -7.58,338.89 -12.63,708.03 -5.15,351.26 19.31,1158.96 24.1,1667 1.15,130.32 -375.33,260.89 -494.06,-50.21 78.6,-476.79 38.62,-1554.7 107,-1808.05 17.02,-63.19 -29.9,-850.07 -29.9,-850.07z"></path><path fill="#d8d8d8" fill-rule="nonzero" d="M2045.58 5670.23c43.13,26.39 198.84,-56 212.96,-69.52 14.13,-13.74 121.48,77.85 121.48,77.85l9.58 852.36 -563.33 -746.51 219.3 -114.19z"></path><polygon fill="#001c49" fill-rule="nonzero" points="2074.22 5669.62 2060.45 5737.5 2171.35 5842.96 2250.96 5830.84 2263.44 5713.4 2185.73 5634.15"></polygon><polygon fill="#001c49" fill-rule="nonzero" points="2169.31 5838.53 2173 6208.07 2411.07 6584.03 2406.89 6170.48 2248.17 5820.51"></polygon><polygon fill="#d8d8d8" fill-rule="nonzero" points="2185.73 5634.15 2227.86 5504.58 2356.82 5609.04 2308.5 5757.53"></polygon><polygon fill="#fff" fill-rule="nonzero" points="1778.11 5400.76 2154.19 5644.88 1985 5879.91 1693.82 5552.04"></polygon><path fill-rule="nonzero" d="M1659.27 5550.64c0,0 -267.22,139.41 -564.08,289.78 -111.8,56.79 149.38,227.09 117.44,340.89 -31.9,113.8 66.23,782.34 70.41,915.45 4.4,133.22 -75.96,1056.85 -179.67,1387.91 -24.21,79.46 1300,347.43 1356.51,45.78 48.81,-293.82 31.29,-1159.17 -53.11,-1925.59 -6.94,-64.84 -747.51,-1054.21 -747.51,-1054.21z"></path><polygon fill-rule="nonzero" points="2353.13 5662.79 2332.21 5592.41 2460.89 5690.69 2481.34 5776.23 2403.09 5754.52 2575.97 5909.45 2406.78 6623.66"></polygon><polygon fill="#232121" fill-rule="nonzero" points="2406.39 6554.89 1672.65 5496.25 1605.13 5537.12 1595.18 5716.4 1767.13 5698.73 1653.19 5919.53 2406.78 6623.66"></polygon><path fill-rule="nonzero" d="M1138.46 5813.07c-160.72,76.71 -193.8,60.69 -277.3,311.35 0,0 -115.05,1251.9 -133.61,1361.94 -18.56,110.26 506.79,745.87 476.14,760.35 216.36,5.19 476.39,-401.18 476.39,-401.18 0,0 -426.32,-637.25 -397.04,-748.76 29,-111.54 235.18,-662.5 216.51,-811.34 -18.81,-148.78 -240.47,-530.29 -361.09,-472.35z"></path><path fill="#eac4b2" fill-rule="nonzero" d="M2419.01 4808.43c38.48,285.49 -16.67,600.17 -168.05,651.38 -137.76,46.81 -468.06,-81 -587.04,-342.68 -119.48,-261.39 -51.21,-552.31 214.11,-627.13 289.78,-81.75 508.68,76.46 540.98,318.43z"></path><path fill="#4f1109" fill-rule="nonzero" d="M2047.33 4643.67c33.94,28.9 211.71,-30.43 268.61,0.75 57.26,30.9 101.57,172.95 120.84,201.84 0,0 9.22,-151.52 -25.71,-222.55 -140.44,-288.39 -446.24,-290.93 -500.35,-229.85 -54.25,60.94 136.61,249.8 136.61,249.8z"></path><path fill="#210500" fill-rule="nonzero" d="M2092.5 4605.44c8.69,69.77 -58.79,109.86 -126.03,172.44 -67.37,62.59 -147.13,165.65 -146.09,192.55 1.36,26.75 -59.83,-38.12 -89.19,27.86 -29.29,66.73 54.86,184.32 77.32,211.82 19.67,24.5 -57.4,215.25 -57.4,215.25 0,0 -194.66,-188.86 -212.72,-520.67 -17.92,-331.56 303.05,-455.47 422.39,-457.22 173.23,-2.65 131.71,157.96 131.71,157.96z"></path><path fill-rule="nonzero" d="M1545.72 4892.58c-116.59,-22.46 -210.71,-89.94 -150.78,-181.67 115.05,-176.88 607.46,-440.7 832.05,-445.24 131.07,-2.5 323.83,100.2 314.39,167.69 -9.33,67.38 -95.88,123.88 -129.21,165.4 -15.77,19.67 -43.38,58.15 -43.38,58.15l-823.07 235.68z"></path><path fill-rule="nonzero" d="M1566.54 5027.44c376.47,-334.95 785.99,-248.15 833.91,-319.18 47.96,-71.02 -30.4,-181.31 -30.4,-181.31 -188.61,-14.48 -523.2,38.12 -822.07,282.74 -55.75,45.67 18.56,217.76 18.56,217.76z"></path><path fill-rule="nonzero" d="M1766.74 4829.24c191.9,83 130.21,90.08 287.17,110.65 149.88,19.92 641.51,-93.12 567.48,-132.61 -146.98,-79.36 -221.44,-146.34 -221.44,-146.34l-433.48 116.94 -199.73 51.36z"></path><path fill="#232121" fill-rule="nonzero" d="M2426.34 4565.81c-81.5,-54.11 -356.05,-5.69 -373.46,2.9 -17.38,8.58 11.37,202.38 11.37,202.38 0,0 320.83,-83.54 373.93,-76.35 37.48,4.93 -11.84,-128.93 -11.84,-128.93z"></path><path fill="#232121" fill-rule="nonzero" d="M2507.2 4496.04c-80.36-48.42-272.01-140.05-451.04-60.44-179.03 79.5-399.54 223.69-364.35 244.51 35.44 20.96 390.85-111.51 464.91-113.41 74.56-1.79 244.61 22.07 244.61 22.07l-9.98 44.78 115.83-137.51zM2294.09 8810.54c-37.59 200.48-150.49 1503.85-238.18 1666.74-87.69 162.97-187.86 1340.95-187.86 1391.05 0 50.21-213.07 25.11-213.07 25.11 0 0 300.62-1579.06 338.24-1729.44 37.73-150.38 300.87-1353.46 300.87-1353.46zM1429.28 6567.26c-62.59 150.49-175.38 601.52-125.17 676.73 50.1 75.32 33.44 384.41 33.44 384.41 0 0-158.86-321.72-158.86-447 0-125.28 25-1052.81 137.9-1002.6 112.69 50.07 112.69 388.45 112.69 388.45z"></path></svg>