<?xml version="1.0" encoding="UTF-8" standalone="no" ?>
<!DOCTYPE svg PUBLIC "-//W3C//DTD SVG 1.1//EN" "http://www.w3.org/Graphics/SVG/1.1/DTD/svg11.dtd">
<svg xmlns="http://www.w3.org/2000/svg" xmlns:xlink="http://www.w3.org/1999/xlink" version="1.1" width="800" height="800" viewBox="0 0 1080 1080" xml:space="preserve">
<desc>Created with Fabric.js 5.2.4</desc>
<defs>
</defs>
<g transform="matrix(1 0 0 1 540 540)" id="c8d02990-8e26-4a6a-bd0c-bd4d94a03647"  >
<rect style="stroke: none; stroke-width: 1; stroke-dasharray: none; stroke-linecap: butt; stroke-dashoffset: 0; stroke-linejoin: miter; stroke-miterlimit: 4; fill: rgb(255,255,255); fill-rule: nonzero; opacity: 1; visibility: hidden;" vector-effect="non-scaling-stroke"  x="-540" y="-540" rx="0" ry="0" width="1080" height="1080" />
</g>
<g transform="matrix(1 0 0 1 540 540)" id="a7145768-19ee-4db1-9a7d-9608dfe46632"  >
</g>
<g transform="matrix(0.01 0 0 0.01 539.98 538.66)" id="taxi-driver"  >
<path style="stroke: none; stroke-width: 1; stroke-dasharray: none; stroke-linecap: butt; stroke-dashoffset: 0; stroke-linejoin: miter; stroke-miterlimit: 4; fill: rgb(0,0,0); fill-rule: nonzero; opacity: 1;" vector-effect="non-scaling-stroke"  transform=" translate(-9430.29, -9396.77)" d="M 15843.93 10332.8 C 15780.95 9937.66 15533.83 9746.15 15533.83 9746.15 C 14840.29 9131.61 12285.779999999999 8610.189999999999 12285.779999999999 8610.189999999999 L 10881.71 7863.079999999999 C 9112.289999999999 7248.789999999999 6460.249999999999 7646.569999999999 6088.929999999999 7805.639999999999 C 6014.4 7837.679999999999 5717.539999999999 7885.249999999999 4868.959999999999 8389.14 C 4643.7699999999995 8534.98 4073.389999999999 8627.71 3728.569999999999 8840.07 C 3728.569999999999 8840.07 3264.549999999999 8932.8 3114.3099999999986 9528.14 C 3082.3699999999985 9655.31 2968.4399999999987 9918.38 2933.1399999999985 10183.66 C 2874.1999999999985 10624.86 3304.4299999999985 11014.57 3304.4299999999985 11014.57 C 3304.4299999999985 11014.57 4806.129999999998 11120.57 4950.329999999998 11122.22 C 4943.279999999998 11078.05 4939.489999999998 10820.42 4939.489999999998 10774.25 C 4939.489999999998 10294.71 4904.049999999998 9959.37 5383.089999999998 9959.37 C 5862.239999999998 9959.37 6250.689999999999 10294.710000000001 6250.689999999999 10774.25 C 6250.689999999999 10826.61 6245.899999999999 11089.78 6237.059999999999 11139.74 C 7431.959999999999 11135.199999999999 10826.849999999999 11192.85 12096.529999999999 11201.68 C 12083.3 11141.24 12083.3 10838.48 12083.3 10774.25 C 12083.3 10294.71 12471.75 9959.37 12950.9 9959.37 C 13429.94 9959.37 13818.529999999999 10294.710000000001 13818.529999999999 10774.25 C 13818.529999999999 10841.38 13810.699999999999 11171.93 13796.179999999998 11234.48 C 14275.359999999999 11235.23 15590.739999999998 11281.539999999999 15633.769999999999 11252.15 C 15779.859999999999 11152.619999999999 15896.8 10753.949999999999 15932.39 10575.81 C 15940.83 10500.74 15855.68 10405.97 15843.949999999999 10332.8 z" stroke-linecap="round" />
</g>
<g transform="matrix(0.01 0 0 0.01 533.92 538.98)" id="taxi-driver"  >
<path style="stroke: none; stroke-width: 1; stroke-dasharray: none; stroke-linecap: butt; stroke-dashoffset: 0; stroke-linejoin: miter; stroke-miterlimit: 4; fill: rgb(0,0,0); fill-rule: nonzero; opacity: 1;" vector-effect="non-scaling-stroke"  transform=" translate(-8455.73, -9448.24)" d="M 9891.22 9497.75 L 9496.08 9497.75 C 9468.58 9497.75 9446.23 9475.54 9446.23 9448.29 C 9446.23 9421.04 9468.58 9398.720000000001 9496.08 9398.720000000001 L 9891.22 9398.720000000001 C 9918.47 9398.720000000001 9940.39 9421.03 9940.39 9448.29 C 9940.39 9475.54 9918.47 9497.75 9891.22 9497.75 z M 7416.03 9497.75 L 7020.78 9497.75 C 6993.389999999999 9497.75 6971.07 9475.54 6971.07 9448.29 C 6971.07 9421.04 6993.38 9398.720000000001 7020.78 9398.720000000001 L 7416.03 9398.720000000001 C 7443.28 9398.720000000001 7465.24 9421.03 7465.24 9448.29 C 7465.24 9475.54 7443.28 9497.75 7416.03 9497.75 z" stroke-linecap="round" />
</g>
<g transform="matrix(0.01 0 0 0.01 502.26 538.92)" id="taxi-driver"  >
<path style="stroke: none; stroke-width: 1; stroke-dasharray: none; stroke-linecap: butt; stroke-dashoffset: 0; stroke-linejoin: miter; stroke-miterlimit: 4; fill: rgb(170,2,2); fill-rule: nonzero; opacity: 1;" vector-effect="non-scaling-stroke"  transform=" translate(-3366.17, -9439.62)" d="M 3238.18 9280.63 C 3301.37 9249.339999999998 3640.2599999999998 9210.359999999999 3640.2599999999998 9370.32 C 3640.2599999999998 9440.949999999999 3092.0899999999997 9626.81 3092.0899999999997 9626.81 C 3092.0899999999997 9626.81 3132.0699999999997 9333.74 3238.18 9280.63 z" stroke-linecap="round" />
</g>
<g transform="matrix(0.01 0 0 0.01 524.96 537.21)" id="taxi-driver"  >
<path style="stroke: none; stroke-width: 1; stroke-dasharray: none; stroke-linecap: butt; stroke-dashoffset: 0; stroke-linejoin: miter; stroke-miterlimit: 4; fill: rgb(34,34,34); fill-rule: nonzero; opacity: 1;" vector-effect="non-scaling-stroke"  transform=" translate(-7015.72, -9164.24)" d="M 8853.64 10657.81 C 8847.599999999999 10657.56 8841.16 10657.31 8835.119999999999 10657.06 C 8803.329999999998 10410.26 8714.89 9724.34 8658.099999999999 9288.18 C 8663.289999999999 9288.18 8668.329999999998 9288.32 8673.509999999998 9288.32 L 8853.639999999998 10657.81 z M 6554.719999999999 10560.529999999999 C 6526.57 10559.029999999999 6500.36 10557.38 6476.11 10555.839999999998 C 6465.88 10079.589999999998 5687.719999999999 9505.569999999998 5428.23 9375.609999999999 C 5302.3099999999995 9312.669999999998 5235.04 9165.289999999999 5201.889999999999 9017.199999999999 C 5233.429999999999 9018.56 5265.23 9020.099999999999 5297.0199999999995 9021.599999999999 C 5329.669999999999 9161.509999999998 5393.9 9299.399999999998 5511.339999999999 9358.449999999999 C 5763.039999999999 9485.009999999998 6576.919999999999 10097.259999999998 6554.709999999999 10560.529999999999 z M 8621 8889.64 C 8615.81 8889.529999999999 8610.77 8889.39 8605.62 8889.25 C 8541.640000000001 8408.71 8459.390000000001 7810.4400000000005 8442.470000000001 7726.18 C 8383.43 7723.14 8313.300000000001 7721.88 8235.19 7721.88 C 7665.570000000001 7721.88 6677.09 7793.66 6557.5 7832.28 C 6385.41 7887.639999999999 5408.17 8336.17 5279.85 8640.48 C 5276.700000000001 8647.779999999999 5273.910000000001 8660.9 5271.77 8678.71 C 5239.9800000000005 8677.06 5208.580000000001 8675.529999999999 5177.790000000001 8674.169999999998 C 5180.1900000000005 8652.319999999998 5183.4800000000005 8636.299999999997 5187.120000000001 8627.71 C 5311.000000000001 8336.169999999998 6375.93 7854.849999999999 6557.500000000001 7796.799999999999 C 6685.170000000001 7755.919999999999 7698.000000000001 7670.669999999999 8283.26 7670.669999999999 C 8348.35 7670.669999999999 8408.28 7671.669999999999 8461.04 7673.919999999999 L 8621 8889.63 z" stroke-linecap="round" />
</g>
<g transform="matrix(0.01 0 0 0.01 540.5 537.43)" id="taxi-driver"  >
<path style="stroke: none; stroke-width: 1; stroke-dasharray: none; stroke-linecap: butt; stroke-dashoffset: 0; stroke-linejoin: miter; stroke-miterlimit: 4; fill: rgb(43,43,43); fill-rule: nonzero; opacity: 1;" vector-effect="non-scaling-stroke"  transform=" translate(-9513.28, -9199.74)" d="M 4299.72 8680.86 C 4004.75 8794.41 3336.2000000000003 9096.310000000001 3671.8 9016.710000000001 C 4007.25 8937.210000000001 6579.97 9052.150000000001 7431.55 9211.220000000001 C 7982.860000000001 9314.18 9398.81 9295.010000000002 10504.37 9275.840000000002 C 11107.04 9265.470000000001 11617.480000000001 9254.990000000002 11845.210000000001 9264.360000000002 C 12490.650000000001 9290.720000000003 14817.820000000002 9370.320000000002 15153.560000000001 9662.150000000003 C 15424.820000000002 9741.510000000004 15579.240000000002 9821.220000000003 15295.36 9582.540000000003 C 15011.51 9343.820000000003 13239.810000000001 8972.540000000003 11923.17 8919.430000000002 C 11374.75 8897.330000000002 10756.81 8898.330000000002 10127.39 8899.230000000001 C 9246.269999999999 8900.480000000001 8342.3 8901.880000000001 7573.98 8840.080000000002 C 6408.629999999999 8746.060000000001 4506.24 8601.360000000002 4299.709999999999 8680.860000000002 z" stroke-linecap="round" />
</g>
<g transform="matrix(0.01 0 0 0.01 543.49 532.29)" id="taxi-driver"  >
<path style="stroke: none; stroke-width: 1; stroke-dasharray: none; stroke-linecap: butt; stroke-dashoffset: 0; stroke-linejoin: miter; stroke-miterlimit: 4; fill: rgb(169,192,188); fill-rule: nonzero; opacity: 1;" vector-effect="non-scaling-stroke"  transform=" translate(-9994.72, -8372.88)" d="M 11265.11 8879.16 C 11175.67 8875.01 11060.980000000001 8870.83 10930.16 8866.43 L 10986.16 8866.43 C 11053.93 8866.43 11115.23 8839.29 11159.89 8795.26 C 11194.72 8824.66 11231.92 8854.95 11265.109999999999 8879.16 z M 10676.810000000001 8858.6 C 9905.7 8836.140000000001 8846.95 8815.33 8846.95 8815.33 L 8724.320000000002 7866.59 C 8817.45 7867.09 9544.750000000002 7875.92 10040.310000000001 8010.03 C 10242.050000000001 8064.67 10528.720000000001 8211.91 10793.140000000001 8371.48 L 10738.750000000002 8371.48 C 10601.990000000002 8371.48 10491.100000000002 8482.279999999999 10491.100000000002 8618.779999999999 C 10491.100000000002 8734.329999999998 10570.100000000002 8831.099999999999 10676.810000000001 8858.599999999999 z" stroke-linecap="round" />
</g>
<g transform="matrix(0.01 0 0 0.01 544.7 532.24)" id="taxi-driver"  >
<path style="stroke: none; stroke-width: 1; stroke-dasharray: none; stroke-linecap: butt; stroke-dashoffset: 0; stroke-linejoin: miter; stroke-miterlimit: 4; fill: rgb(213,226,239); fill-rule: nonzero; opacity: 1;" vector-effect="non-scaling-stroke"  transform=" translate(-10189.88, -8365.92)" d="M 11454.62 8891.79 C 11268.900000000001 8863.03 8846.960000000001 8815.330000000002 8846.960000000001 8815.330000000002 L 8723.18 7857.500000000002 C 8723.18 7857.500000000002 9518.79 7857.500000000002 10049.04 8001.330000000002 C 10579.69 8144.920000000002 11696.720000000001 8929.370000000003 11454.61 8891.780000000002 z M 10126.36 7947.480000000001 C 9533.28 7786.980000000001 8643.58 7786.980000000001 8643.58 7786.980000000001 L 8781.87 8857.850000000002 C 8781.87 8857.850000000002 11490.560000000001 8911.350000000002 11698.37 8943.390000000003 C 11968.84 8985.410000000003 10719.59 8108.190000000003 10126.36 7947.480000000003 z" stroke-linecap="round" />
</g>
<g transform="matrix(0.01 0 0 0.01 576.94 544.38)" id="taxi-driver"  >
<path style="stroke: none; stroke-width: 1; stroke-dasharray: none; stroke-linecap: butt; stroke-dashoffset: 0; stroke-linejoin: miter; stroke-miterlimit: 4; fill: rgb(43,43,43); fill-rule: nonzero; opacity: 1;" vector-effect="non-scaling-stroke"  transform=" translate(-15372.37, -10316.93)" d="M 15640.54 11245.46 C 15786.52 11146.039999999999 15903.570000000002 10747.15 15939.050000000001 10569.119999999999 C 15947.130000000001 10494.06 15862.2 10399.429999999998 15850.470000000001 10326.259999999998 C 15787.380000000001 9930.979999999998 15540.480000000001 9739.469999999998 15540.480000000001 9739.469999999998 C 15399.070000000002 9614.089999999998 15179.810000000001 9492.559999999998 14921.180000000002 9378.659999999998 C 14606.000000000002 9604.859999999999 15032.830000000002 10053.349999999999 15032.830000000002 10053.349999999999 C 15430.620000000003 10344.919999999998 15324.370000000003 10716.21 15191.79 10954.779999999999 C 15148.12 11034.029999999999 15101.060000000001 11141.999999999998 15058.43 11251.289999999999 C 15374.07 11256.689999999999 15622.23 11257.939999999999 15640.54 11245.46 z" stroke-linecap="round" />
</g>
<g transform="matrix(0.01 0 0 0.01 573.74 541.1)" id="taxi-driver"  >
<path style="stroke: none; stroke-width: 1; stroke-dasharray: none; stroke-linecap: butt; stroke-dashoffset: 0; stroke-linejoin: miter; stroke-miterlimit: 4; fill: rgb(229,229,229); fill-rule: nonzero; opacity: 1;" vector-effect="non-scaling-stroke"  transform=" translate(-14857.56, -9789.42)" d="M 15353.15 9768.22 C 15063.22 9575.46 14787.43 9476.439999999999 14486.66 9485.269999999999 C 14253.63 9492.069999999998 14049.64 9487.529999999999 14336.53 9662.149999999998 C 14990.550000000001 10059.939999999999 15092.470000000001 10137.399999999998 15426.18 10074.819999999998 C 15671.94 10028.759999999998 15353.15 9768.229999999998 15353.15 9768.229999999998 z" stroke-linecap="round" />
</g>
<g transform="matrix(0.01 0 0 0.01 524.77 532.18)" id="taxi-driver"  >
<path style="stroke: none; stroke-width: 1; stroke-dasharray: none; stroke-linecap: butt; stroke-dashoffset: 0; stroke-linejoin: miter; stroke-miterlimit: 4; fill: rgb(169,192,188); fill-rule: nonzero; opacity: 1;" vector-effect="non-scaling-stroke"  transform=" translate(-6986.03, -8355.35)" d="M 8272.44 8844.37 C 8272.44 8844.37 7247.880000000001 8804.1 6760.76 8758.18 C 6150.900000000001 8700.78 6141.93 8739.01 5797.24 8624.07 C 5452.3099999999995 8509.02 6097.65 8202.83 6548.54 8030.34 C 6935.99 7882.25 7723.87 7866.33 8044.0599999999995 7866.33 C 8131.499999999999 7866.33 8183.999999999999 7867.62 8183.999999999999 7867.62 L 8272.439999999999 8844.369999999999 z" stroke-linecap="round" />
</g>
<g transform="matrix(0.01 0 0 0.01 524.57 531.95)" id="taxi-driver"  >
<path style="stroke: none; stroke-width: 1; stroke-dasharray: none; stroke-linecap: butt; stroke-dashoffset: 0; stroke-linejoin: miter; stroke-miterlimit: 4; fill: rgb(213,226,239); fill-rule: nonzero; opacity: 1;" vector-effect="non-scaling-stroke"  transform=" translate(-6952.67, -8318.43)" d="M 5814.91 8606.4 C 5470.12 8491.6 6115.42 8185.15 6566.1 8012.67 C 7059.620000000001 7824.06 8201.52 7850.06 8201.52 7850.06 L 8290.1 8826.7 C 8290.1 8826.7 7265.650000000001 8786.58 6778.530000000001 8740.66 C 6168.570000000001 8683.119999999999 6159.59 8721.21 5814.910000000001 8606.41 z M 8273.94 7780.429999999999 C 8273.94 7780.429999999999 7014.35 7751.929999999999 6470.1900000000005 7959.82 C 5973.13 8150.08 5261.200000000001 8487.82 5641.43 8614.74 C 6021.6900000000005 8741.41 6031.52 8699.14 6704.22 8762.73 C 7241.4400000000005 8813.189999999999 8371.470000000001 8857.75 8371.470000000001 8857.75 L 8273.95 7780.4400000000005 z" stroke-linecap="round" />
</g>
<g transform="matrix(0.01 0 0 0.01 548.89 533.82)" id="taxi-driver"  >
<path style="stroke: none; stroke-width: 1; stroke-dasharray: none; stroke-linecap: butt; stroke-dashoffset: 0; stroke-linejoin: miter; stroke-miterlimit: 4; fill: rgb(0,0,0); fill-rule: nonzero; opacity: 1;" vector-effect="non-scaling-stroke"  transform=" translate(-10862.4, -8618.96)" d="M 11233.71 8618.78 C 11233.71 8755.68 11122.81 8866.43 10986.16 8866.43 L 10738.75 8866.43 C 10601.99 8866.43 10491.1 8755.67 10491.1 8618.78 C 10491.1 8482.28 10602 8371.480000000001 10738.75 8371.480000000001 L 10986.16 8371.480000000001 C 11122.81 8371.480000000001 11233.71 8482.28 11233.71 8618.78 z" stroke-linecap="round" />
</g>
<g transform="matrix(0.01 0 0 0.01 552.38 534.64)" id="taxi-driver"  >
<path style="stroke: none; stroke-width: 1; stroke-dasharray: none; stroke-linecap: butt; stroke-dashoffset: 0; stroke-linejoin: miter; stroke-miterlimit: 4; fill: rgb(0,0,0); fill-rule: nonzero; opacity: 1;" vector-effect="non-scaling-stroke"  transform=" translate(-11423.74, -8751.56)" d="M 11136.43 8557.09 L 11817.06 8946.04 C 11817.06 8946.04 11419.42 8946.04 11348.75 8928.26 C 11278.12 8910.59 11030.43 8680.85 11030.43 8680.85 L 11136.43 8557.08 z" stroke-linecap="round" />
</g>
<g transform="matrix(0.01 0 0 0.01 539.4 546.84)" id="taxi-driver"  >
<path style="stroke: none; stroke-width: 1; stroke-dasharray: none; stroke-linecap: butt; stroke-dashoffset: 0; stroke-linejoin: miter; stroke-miterlimit: 4; fill: rgb(43,43,43); fill-rule: nonzero; opacity: 1;" vector-effect="non-scaling-stroke"  transform=" translate(-9337.19, -10712.37)" d="M 6274.78 10537.33 C 6379.99 10579.46 10658.54 10714.96 12188.61 10793.68 C 12581.11 10813.74 12305.7 10887.41 12305.7 10887.41 L 6274.790000000001 10837.7 L 6274.790000000001 10537.33 z" stroke-linecap="round" />
</g>
<g transform="matrix(0.01 0 0 0.01 562.58 547.72)" id="taxi-driver"  >
<path style="stroke: none; stroke-width: 1; stroke-dasharray: none; stroke-linecap: butt; stroke-dashoffset: 0; stroke-linejoin: miter; stroke-miterlimit: 4; fill: rgb(35,33,33); fill-rule: nonzero; opacity: 1;" vector-effect="non-scaling-stroke"  transform=" translate(-13063.56, -10854.1)" d="M 12029.39 10854.25 C 12029.39 10282.73 12492.55 9820.07 13063.68 9820.07 C 13634.95 9820.07 14097.720000000001 10282.73 14097.720000000001 10854.25 C 14097.720000000001 11425.38 13634.95 11888.14 13063.68 11888.14 C 12492.550000000001 11888.14 12029.39 11425.38 12029.39 10854.25 z" stroke-linecap="round" />
</g>
<g transform="matrix(0.01 0 0 0.01 562.58 547.72)" id="taxi-driver"  >
<path style="stroke: none; stroke-width: 1; stroke-dasharray: none; stroke-linecap: butt; stroke-dashoffset: 0; stroke-linejoin: miter; stroke-miterlimit: 4; fill: rgb(137,137,137); fill-rule: nonzero; opacity: 1;" vector-effect="non-scaling-stroke"  transform=" translate(-13063.5, -10854.17)" d="M 12467.3 10854.25 C 12468.09 11183.16 12734.519999999999 11449.59 13063.679999999998 11450.09 C 13392.729999999998 11449.59 13659.159999999998 11183.16 13659.55 10854.25 C 13659.16 10525.2 13392.73 10258.63 13063.679999999998 10258.13 C 12734.519999999999 10258.63 12468.089999999998 10525.199999999999 12467.3 10854.25 z M 12362.09 10854.25 C 12362.48 10466.91 12676.37 10152.66 13063.68 10152.66 C 13450.880000000001 10152.66 13764.91 10466.9 13764.91 10854.25 C 13764.91 11241.67 13450.88 11555.19 13063.68 11555.69 C 12676.37 11555.19 12362.48 11241.66 12362.09 10854.25 z" stroke-linecap="round" />
</g>
<g transform="matrix(0.01 0 0 0.01 562.58 547.72)" id="taxi-driver"  >
<path style="stroke: none; stroke-width: 1; stroke-dasharray: none; stroke-linecap: butt; stroke-dashoffset: 0; stroke-linejoin: miter; stroke-miterlimit: 4; fill: rgb(137,137,137); fill-rule: nonzero; opacity: 1;" vector-effect="non-scaling-stroke"  transform=" translate(-13063.59, -10854.36)" d="M 13688.8 10993.51 C 13434.21 10978.24 13245.49 10921.73 13245.49 10854.25 C 13245.49 10786.62 13434.21 10730.33 13689.05 10715.06 C 13672.67 10642.279999999999 13643.88 10572.9 13604.289999999999 10510.17 C 13413.64 10679.26 13239.8 10773.74 13192.089999999998 10725.67 C 13144.529999999999 10677.97 13238.549999999997 10504.26 13407.589999999998 10313.76 C 13367.069999999998 10288.12 13323.299999999997 10266.45 13275.739999999998 10249.53 C 13251.279999999999 10240.95 13227.169999999998 10234.400000000001 13202.959999999997 10228.83 C 13187.689999999997 10483.57 13130.899999999998 10672.43 13063.659999999998 10672.43 C 12996.279999999999 10672.43 12939.879999999997 10483.57 12924.359999999999 10228.83 C 12851.829999999998 10245.1 12782.449999999999 10273.89 12719.98 10313.77 C 12888.92 10504.53 12982.789999999999 10677.970000000001 12935.34 10725.68 C 12887.67 10773.75 12713.83 10679.26 12523.07 10510.18 C 12497.43 10550.81 12475.51 10594.470000000001 12459.23 10641.89 C 12450.65 10666.24 12443.96 10690.849999999999 12438.13 10715.06 C 12693.119999999999 10730.33 12882.119999999999 10786.619999999999 12882.119999999999 10854.25 C 12882.119999999999 10921.73 12693.119999999999 10978.24 12438.13 10993.51 C 12454.439999999999 11066.07 12483.439999999999 11135.06 12523.17 11198.29 C 12713.82 11028.990000000002 12887.66 10934.970000000001 12935.33 10982.53 C 12982.789999999999 11030.24 12888.91 11204.33 12719.61 11394.84 C 12760.24 11420.7 12804.26 11442.4 12851.57 11458.93 C 12875.68 11467.51 12899.88 11474.1 12924.35 11479.89 C 12939.87 11225.05 12996.27 11035.689999999999 13063.65 11035.689999999999 C 13130.88 11035.689999999999 13187.67 11225.05 13202.949999999999 11479.89 C 13275.619999999999 11463.369999999999 13344.89 11434.72 13407.329999999998 11394.49 C 13238.529999999999 11204.34 13144.509999999998 11030.25 13192.069999999998 10982.539999999999 C 13239.779999999997 10934.98 13413.619999999997 11028.999999999998 13604.379999999997 11198.3 C 13629.729999999998 11157.529999999999 13651.839999999997 11113.65 13668.469999999998 11066.189999999999 C 13676.549999999997 11042.089999999998 13683.629999999997 11017.88 13688.779999999997 10993.519999999999 z" stroke-linecap="round" />
</g>
<g transform="matrix(0.01 0 0 0.01 504.62 546.07)" id="taxi-driver"  >
<path style="stroke: none; stroke-width: 1; stroke-dasharray: none; stroke-linecap: butt; stroke-dashoffset: 0; stroke-linejoin: miter; stroke-miterlimit: 4; fill: rgb(43,43,43); fill-rule: nonzero; opacity: 1;" vector-effect="non-scaling-stroke"  transform=" translate(-3746.3, -10587.78)" d="M 4506.61 10510.68 L 2985.99 10444.2 L 3065.6 10643.18 C 3065.6 10643.18 4553.78 10775.14 4457.91 10716.210000000001 C 4371.76 10663.1 4506.62 10510.68 4506.62 10510.68 z" stroke-linecap="round" />
</g>
<g transform="matrix(0.01 0 0 0.01 545.48 537.58)" id="taxi-driver"  >
<path style="stroke: none; stroke-width: 1; stroke-dasharray: none; stroke-linecap: butt; stroke-dashoffset: 0; stroke-linejoin: miter; stroke-miterlimit: 4; fill: rgb(34,34,34); fill-rule: nonzero; opacity: 1;" vector-effect="non-scaling-stroke"  transform=" translate(-10314.48, -9223.65)" d="M 11806.23 10775.25 C 11786.67 10774.39 11767 10773.5 11746.93 10772.6 C 11807.48 10576.16 12144.57 9469.24 12100.300000000001 9274.550000000001 C 12121.26 9275.44 12142.93 9276.340000000002 12165.130000000001 9277.2 C 12201.11 9473.140000000001 11907.28 10448.75 11806.220000000001 10775.25 z M 8918.369999999999 10660.2 C 8902.349999999999 10659.560000000001 8886.329999999998 10658.95 8870.3 10658.41 C 8840.009999999998 10405.46 8758.509999999998 9728.869999999999 8702 9288.67 C 8714.48 9288.92 8727.1 9288.92 8739.59 9289.210000000001 L 8918.37 10660.2 z M 11976.169999999998 8921.68 C 11958.359999999999 8920.93 11940.689999999999 8920.18 11923.169999999998 8919.42 C 11917.979999999998 8919.28 11912.689999999999 8919.03 11907.399999999998 8918.78 C 11866.919999999998 8865.42 11827.039999999997 8821.650000000001 11794.359999999997 8794.26 C 11713.999999999996 8726.630000000001 10508.659999999996 7974.08 10221.239999999998 7891.08 C 9933.599999999999 7807.93 8535.719999999998 7725.43 8535.719999999998 7725.43 L 8687.739999999998 8891.04 C 8675.009999999998 8890.79 8662.279999999999 8890.54 8649.649999999998 8890.29 C 8583.419999999998 8389.79 8501.019999999999 7773.860000000001 8477.809999999998 7674.720000000001 C 8472.269999999997 7674.430000000001 8466.719999999998 7674.180000000001 8461.039999999997 7673.930000000001 L 8460.789999999997 7672.040000000001 C 8460.789999999997 7672.040000000001 9907.989999999998 7755.080000000001 10208.359999999997 7841.120000000001 C 10508.659999999996 7926.920000000001 11759.559999999998 8703.68 11843.709999999997 8773.7 C 11881.549999999997 8805.240000000002 11928.719999999998 8857.740000000002 11976.169999999996 8921.69 z" stroke-linecap="round" />
</g>
<g transform="matrix(0.01 0 0 0.01 535.22 537.22)" id="taxi-driver"  >
<path style="stroke: none; stroke-width: 1; stroke-dasharray: none; stroke-linecap: butt; stroke-dashoffset: 0; stroke-linejoin: miter; stroke-miterlimit: 4; fill: rgb(41,41,41); fill-rule: nonzero; opacity: 1;" vector-effect="non-scaling-stroke"  transform=" translate(-8665.68, -9166.18)" d="M 8870.31 10658.42 C 8864.769999999999 10658.17 8859.189999999999 10657.92 8853.64 10657.81 L 8673.51 9288.32 C 8682.95 9288.43 8692.43 9288.57 8702.01 9288.68 C 8758.51 9728.880000000001 8840.02 10405.470000000001 8870.31 10658.42 z M 8649.66 8890.29 C 8640.08 8890.04 8630.6 8889.900000000001 8621.01 8889.650000000001 L 8461.050000000001 7673.940000000001 C 8466.740000000002 7674.190000000001 8472.28 7674.440000000001 8477.820000000002 7674.730000000001 C 8501.03 7773.8600000000015 8583.430000000002 8389.800000000001 8649.660000000002 8890.300000000001 z" stroke-linecap="round" />
</g>
<g transform="matrix(0.01 0 0 0.01 533.16 532.04)" id="taxi-driver"  >
<path style="stroke: none; stroke-width: 1; stroke-dasharray: none; stroke-linecap: butt; stroke-dashoffset: 0; stroke-linejoin: miter; stroke-miterlimit: 4; fill: rgb(43,43,43); fill-rule: nonzero; opacity: 1;" vector-effect="non-scaling-stroke"  transform=" translate(-10393.08, -9885.83)" d="M 8739.6 9289.22 C 8727.12 9288.929999999998 8714.49 9288.929999999998 8702.01 9288.679999999998 C 8692.42 9288.569999999998 8682.95 9288.429999999998 8673.51 9288.319999999998 L 8621.01 8889.639999999998 C 8630.6 8889.889999999998 8640.07 8890.029999999997 8649.66 8890.279999999997 C 8662.289999999999 8890.529999999997 8675.01 8890.779999999997 8687.75 8891.029999999997 L 8739.61 9289.209999999997 z M 12165.14 9277.199999999999 C 12142.93 9276.339999999998 12121.26 9275.449999999999 12100.31 9274.55 C 12099.66 9271.8 12098.91 9269.15 12098.16 9266.75 C 12058.43 9146.12 11981.72 9016.41 11907.4 8918.78 C 11912.699999999999 8919.03 11917.99 8919.28 11923.17 8919.42 C 11940.69 8920.17 11958.36 8920.92 11976.17 8921.68 C 12049.34 9020.7 12122.91 9147.02 12161.99 9264.35 C 12163.24 9268.25 12164.28 9272.54 12165.14 9277.19 z M 11772.9 10882.01 L 8878.5 10846.68 L 8853.64 10657.82 C 8859.18 10657.93 8864.76 10658.18 8870.31 10658.43 C 8886.33 10658.970000000001 8902.35 10659.58 8918.38 10660.220000000001 L 8935.65 10793.18 L 11737.61 10802.41 C 11737.61 10802.41 11740.87 10791.93 11746.94 10772.619999999999 C 11767 10773.509999999998 11786.67 10774.41 11806.24 10775.269999999999 C 11785.53 10842.249999999998 11772.91 10882.019999999999 11772.91 10882.019999999999 z" stroke-linecap="round" />
</g>
<g transform="matrix(0.01 0 0 0.01 514.74 547.72)" id="taxi-driver"  >
<path style="stroke: none; stroke-width: 1; stroke-dasharray: none; stroke-linecap: butt; stroke-dashoffset: 0; stroke-linejoin: miter; stroke-miterlimit: 4; fill: rgb(35,33,33); fill-rule: nonzero; opacity: 1;" vector-effect="non-scaling-stroke"  transform=" translate(-5372.97, -10854.1)" d="M 4338.7 10854.25 C 4338.7 10282.73 4801.82 9820.07 5372.95 9820.07 C 5944.11 9820.07 6407.24 10282.73 6407.24 10854.25 C 6407.24 11425.38 5944.11 11888.14 5372.95 11888.14 C 4801.82 11888.14 4338.7 11425.38 4338.7 10854.25 z" stroke-linecap="round" />
</g>
<g transform="matrix(0.01 0 0 0.01 514.74 547.72)" id="taxi-driver"  >
<path style="stroke: none; stroke-width: 1; stroke-dasharray: none; stroke-linecap: butt; stroke-dashoffset: 0; stroke-linejoin: miter; stroke-miterlimit: 4; fill: rgb(137,137,137); fill-rule: nonzero; opacity: 1;" vector-effect="non-scaling-stroke"  transform=" translate(-5372.65, -10854.17)" d="M 4776.72 10854.25 C 4777.22 11183.16 5043.9400000000005 11449.59 5372.950000000001 11450.09 C 5702.000000000001 11449.59 5968.43 11183.16 5968.820000000001 10854.25 C 5968.43 10525.2 5702.000000000001 10258.63 5372.950000000001 10258.13 C 5043.93 10258.63 4777.220000000001 10525.199999999999 4776.720000000001 10854.25 z M 4671.360000000001 10854.25 C 4671.750000000001 10466.91 4985.64 10152.66 5372.950000000001 10152.66 C 5760.040000000001 10152.66 6073.93 10466.9 6073.93 10854.25 C 6073.93 11241.67 5760.04 11555.19 5372.950000000001 11555.69 C 4985.64 11555.19 4671.750000000001 11241.66 4671.360000000001 10854.25 z" stroke-linecap="round" />
</g>
<g transform="matrix(0.01 0 0 0.01 514.74 547.72)" id="taxi-driver"  >
<path style="stroke: none; stroke-width: 1; stroke-dasharray: none; stroke-linecap: butt; stroke-dashoffset: 0; stroke-linejoin: miter; stroke-miterlimit: 4; fill: rgb(137,137,137); fill-rule: nonzero; opacity: 1;" vector-effect="non-scaling-stroke"  transform=" translate(-5372.98, -10854.36)" d="M 5998.23 10993.51 C 5743.24 10978.24 5554.629999999999 10921.73 5554.629999999999 10854.25 C 5554.629999999999 10786.62 5743.239999999999 10730.33 5998.48 10715.06 C 5981.959999999999 10642.279999999999 5952.959999999999 10572.9 5913.33 10510.17 C 5722.68 10679.26 5548.84 10773.74 5501.42 10725.67 C 5453.86 10677.97 5547.59 10504.26 5716.78 10313.76 C 5676.41 10288.12 5632.49 10266.45 5584.929999999999 10249.53 C 5560.579999999999 10240.95 5536.469999999999 10234.400000000001 5512.259999999999 10228.83 C 5496.879999999999 10483.57 5440.089999999999 10672.43 5372.959999999999 10672.43 C 5305.619999999999 10672.43 5248.969999999999 10483.57 5233.699999999999 10228.83 C 5161.029999999999 10245.1 5091.759999999999 10273.89 5029.319999999999 10313.77 C 5198.119999999999 10504.53 5291.989999999999 10677.970000000001 5244.539999999999 10725.68 C 5196.869999999999 10773.75 5022.989999999999 10679.26 4832.379999999999 10510.18 C 4806.629999999999 10550.81 4784.819999999999 10594.470000000001 4768.4 10641.89 C 4759.96 10666.24 4753.0199999999995 10690.849999999999 4747.589999999999 10715.06 C 5002.329999999999 10730.33 5191.299999999999 10786.619999999999 5191.299999999999 10854.25 C 5191.299999999999 10921.73 5002.329999999999 10978.24 4747.489999999999 10993.51 C 4763.619999999999 11066.07 4792.769999999999 11135.06 4832.499999999999 11198.29 C 5023.009999999999 11028.990000000002 5196.989999999999 10934.970000000001 5244.5599999999995 10982.53 C 5292.0199999999995 11030.24 5198.139999999999 11204.33 5029.089999999999 11394.84 C 5069.459999999999 11420.7 5113.599999999999 11442.4 5160.909999999999 11458.93 C 5184.869999999999 11467.51 5209.219999999999 11474.1 5233.719999999999 11479.89 C 5248.99 11225.05 5305.639999999999 11035.689999999999 5372.98 11035.689999999999 C 5440.11 11035.689999999999 5496.9 11225.05 5512.28 11479.89 C 5584.8 11463.369999999999 5654.33 11434.72 5716.8 11394.49 C 5547.610000000001 11204.34 5453.87 11030.25 5501.4400000000005 10982.539999999999 C 5548.860000000001 10934.98 5722.700000000001 11028.999999999998 5913.710000000001 11198.3 C 5939.060000000001 11157.529999999999 5960.910000000001 11113.65 5977.6900000000005 11066.189999999999 C 5986.13 11042.089999999998 5992.960000000001 11017.88 5998.26 10993.519999999999 z" stroke-linecap="round" />
</g>
</svg>